<svg xmlns="http://www.w3.org/2000/svg" xmlns:xlink="http://www.w3.org/1999/xlink" version="1.1" x="0px" y="0px" viewBox="0 0 100 100" enable-background="new 0 0 100 100" xml:space="preserve"><rect x="20" y="60" width="5" height="5"></rect><rect x="25" y="65" width="5" height="5"></rect><rect x="30" y="70" width="5" height="5"></rect><rect x="40" y="80" width="5" height="5"></rect><rect x="45" y="75" width="5" height="5"></rect><rect x="50" y="70" width="5" height="5"></rect><rect x="55" y="65" width="5" height="5"></rect><rect x="60" y="60" width="5" height="5"></rect><rect x="65" y="55" width="5" height="5"></rect><rect x="70" y="50" width="5" height="5"></rect><rect x="40" y="50" width="5" height="5"></rect><rect x="45" y="45" width="5" height="5"></rect><rect x="50" y="40" width="5" height="5"></rect><rect x="55" y="35" width="5" height="5"></rect><rect x="60" y="30" width="5" height="5"></rect><rect x="75" y="45" width="5" height="5"></rect><rect x="65" y="25" width="5" height="5"></rect><rect x="80" y="40" width="5" height="5"></rect><rect x="85" y="35" width="5" height="5"></rect><rect x="90" y="30" width="5" height="5"></rect><rect x="85" y="25" width="5" height="5"></rect><rect x="80" y="20" width="5" height="5"></rect><rect x="75" y="15" width="5" height="5"></rect><rect x="70" y="20" width="5" height="5"></rect><rect x="35" y="75" width="5" height="5"></rect><rect x="15" y="55" width="5" height="5"></rect><rect x="10" y="50" width="5" height="5"></rect><rect x="5" y="45" width="5" height="5"></rect><rect x="10" y="40" width="5" height="5"></rect><rect x="15" y="35" width="5" height="5"></rect><rect x="20" y="30" width="5" height="5"></rect><rect x="25" y="35" width="5" height="5"></rect><rect x="30" y="40" width="5" height="5"></rect><rect x="35" y="45" width="5" height="5"></rect></svg>