<svg fill="#FFFFFF" xmlns="http://www.w3.org/2000/svg" xmlns:xlink="http://www.w3.org/1999/xlink" version="1.1" x="0px" y="0px" viewBox="0 0 512 512" enable-background="new 0 0 512 512" xml:space="preserve"><g><path d="M441.5,310.3c-4-4.7-11.4-4.7-15.4,0c-19.4,22.7-68.5,90.6-68.5,124.1c0,41.7,34.1,75.5,76.2,75.5s76.2-33.8,76.2-75.5   C510,401,460.9,333,441.5,310.3z"></path><path d="M455.4,242.3c3.9-4,3.9-10.4-0.1-14.4L231.1,5.3c-4-4-10.4-3.9-14.4,0.1l-49.3,49.9l75.6,75.6c4.2-1.1,8.5-1.9,13-1.9   c28.1,0,50.8,22.7,50.8,50.8c0,28.1-22.7,50.8-50.8,50.8s-50.8-22.7-50.8-50.8c0-4.5,0.8-8.8,1.9-13l-75.4-75.4L4.9,219.6   C1,223.6,1,230,5,234l198.8,197.3c4,4,10.4,3.9,14.4-0.1L391.4,256L455.4,242.3z"></path><path d="M121.6,9.4c-9.9-9.9-26-9.9-35.9,0c-9.9,9.9-9.9,26,0,35.9l46,46l35.7-36.1L121.6,9.4z"></path></g></svg>