<svg xmlns="http://www.w3.org/2000/svg" viewBox="16.4 10.7 72.9 84.3" x="0px" y="0px"><rect x="16.4" y="10.7" width="4.7" height="4.7"></rect><rect x="16.4" y="16.4" width="4.7" height="4.7"></rect><rect x="16.4" y="84.6" width="4.7" height="4.7"></rect><rect x="16.4" y="90.3" width="4.7" height="4.7"></rect><rect x="22.1" y="10.7" width="4.7" height="4.7"></rect><rect x="22.1" y="22.1" width="4.7" height="4.7"></rect><rect x="22.1" y="27.7" width="4.7" height="4.7"></rect><rect x="22.1" y="78.9" width="4.7" height="4.7"></rect><rect x="22.1" y="73.2" width="4.7" height="4.7"></rect><rect x="22.1" y="90.3" width="4.7" height="4.7"></rect><rect x="27.7" y="10.7" width="4.7" height="4.7"></rect><rect x="27.7" y="33.4" width="4.7" height="4.7"></rect><rect x="27.7" y="67.5" width="4.7" height="4.7"></rect><rect x="27.7" y="90.3" width="4.7" height="4.7"></rect><rect x="33.4" y="10.7" width="4.7" height="4.7"></rect><rect x="33.4" y="39.1" width="4.7" height="4.7"></rect><rect x="33.4" y="61.9" width="4.7" height="4.7"></rect><rect x="33.4" y="78.9" width="4.7" height="4.7"></rect><rect x="33.4" y="84.6" width="4.7" height="4.7"></rect><rect x="33.4" y="90.3" width="4.7" height="4.7"></rect><rect x="39.1" y="10.7" width="4.7" height="4.7"></rect><rect x="39.1" y="33.4" width="4.7" height="4.7"></rect><rect x="39.1" y="44.8" width="4.7" height="4.7"></rect><rect x="39.1" y="50.5" width="4.7" height="4.7"></rect><rect x="39.1" y="56.2" width="4.7" height="4.7"></rect><rect x="39.1" y="78.9" width="4.7" height="4.7"></rect><rect x="39.1" y="73.2" width="4.7" height="4.7"></rect><rect x="39.1" y="84.6" width="4.7" height="4.7"></rect><rect x="39.1" y="90.3" width="4.7" height="4.7"></rect><rect x="44.8" y="10.7" width="4.7" height="4.7"></rect><rect x="44.8" y="39.1" width="4.7" height="4.7"></rect><rect x="44.8" y="33.4" width="4.7" height="4.7"></rect><rect x="44.8" y="78.9" width="4.7" height="4.7"></rect><rect x="44.8" y="67.5" width="4.7" height="4.7"></rect><rect x="44.8" y="73.2" width="4.7" height="4.7"></rect><rect x="44.8" y="84.6" width="4.7" height="4.7"></rect><rect x="44.8" y="90.3" width="4.7" height="4.7"></rect><rect x="50.5" y="10.7" width="4.7" height="4.7"></rect><rect x="50.5" y="39.1" width="4.7" height="4.7"></rect><rect x="50.5" y="33.4" width="4.7" height="4.7"></rect><rect x="50.5" y="44.8" width="4.7" height="4.7"></rect><rect x="50.5" y="50.5" width="4.7" height="4.7"></rect><rect x="50.5" y="61.9" width="4.7" height="4.7"></rect><rect x="50.5" y="78.9" width="4.7" height="4.7"></rect><rect x="50.5" y="67.5" width="4.7" height="4.7"></rect><rect x="50.5" y="73.2" width="4.7" height="4.7"></rect><rect x="50.5" y="84.6" width="4.7" height="4.7"></rect><rect x="50.5" y="90.3" width="4.7" height="4.7"></rect><rect x="56.2" y="10.7" width="4.7" height="4.7"></rect><rect x="56.2" y="39.1" width="4.7" height="4.7"></rect><rect x="56.2" y="33.4" width="4.7" height="4.7"></rect><rect x="56.2" y="78.9" width="4.7" height="4.7"></rect><rect x="56.2" y="67.5" width="4.7" height="4.7"></rect><rect x="56.2" y="73.2" width="4.7" height="4.7"></rect><rect x="56.2" y="84.6" width="4.7" height="4.7"></rect><rect x="56.2" y="90.3" width="4.7" height="4.7"></rect><rect x="61.9" y="10.7" width="4.7" height="4.7"></rect><rect x="61.9" y="33.4" width="4.7" height="4.7"></rect><rect x="61.9" y="44.8" width="4.7" height="4.7"></rect><rect x="61.9" y="50.5" width="4.7" height="4.7"></rect><rect x="61.9" y="56.2" width="4.7" height="4.7"></rect><rect x="61.9" y="78.9" width="4.7" height="4.7"></rect><rect x="61.9" y="73.2" width="4.7" height="4.7"></rect><rect x="61.9" y="84.6" width="4.7" height="4.7"></rect><rect x="61.9" y="90.3" width="4.7" height="4.7"></rect><rect x="67.5" y="10.7" width="4.7" height="4.7"></rect><rect x="67.5" y="39.1" width="4.7" height="4.7"></rect><rect x="67.5" y="61.9" width="4.7" height="4.7"></rect><rect x="67.5" y="78.9" width="4.7" height="4.7"></rect><rect x="67.5" y="84.6" width="4.7" height="4.7"></rect><rect x="67.5" y="90.3" width="4.7" height="4.7"></rect><rect x="73.2" y="10.7" width="4.7" height="4.7"></rect><rect x="73.2" y="33.4" width="4.7" height="4.7"></rect><rect x="73.2" y="67.5" width="4.7" height="4.7"></rect><rect x="73.2" y="90.3" width="4.7" height="4.7"></rect><rect x="78.9" y="10.7" width="4.7" height="4.7"></rect><rect x="78.9" y="22.1" width="4.7" height="4.7"></rect><rect x="78.9" y="27.7" width="4.7" height="4.7"></rect><rect x="78.9" y="78.9" width="4.7" height="4.7"></rect><rect x="78.9" y="73.2" width="4.7" height="4.7"></rect><rect x="78.9" y="90.3" width="4.7" height="4.7"></rect><rect x="84.6" y="10.7" width="4.7" height="4.7"></rect><rect x="84.6" y="16.4" width="4.7" height="4.7"></rect><rect x="84.6" y="84.6" width="4.7" height="4.7"></rect><rect x="84.6" y="90.3" width="4.7" height="4.7"></rect></svg>