<svg xmlns="http://www.w3.org/2000/svg" xmlns:xlink="http://www.w3.org/1999/xlink" version="1.1" x="0px" y="0px" viewBox="0 0 100 100" style="enable-background:new 0 0 100 100;" xml:space="preserve"><style type="text/css">
	.st0{fill:#1D1D1B;}
</style><path class="st0" d="M46.25,63.91v2.5h-2.5v-2.5H46.25z M48.75,61.41h-2.5v2.5h2.5V61.41z M43.75,33.91v2.5h2.5v-2.5H43.75z   M46.25,36.41v2.5h2.5v-2.5H46.25z M66.25,21.41v2.5v2.5v2.5h-2.5v2.5v2.5v2.5v2.5v2.5h-2.5v2.5h-2.5v2.5h-2.5v2.5v2.5h2.5v2.5h2.5  v2.5h2.5v2.5v2.5v2.5v2.5v2.5h2.5v2.5v2.5v2.5h-2.5h-2.5h-2.5h-2.5h-2.5h-2.5h-2.5h-2.5h-2.5h-2.5h-2.5h-2.5h-2.5v-2.5v-2.5v-2.5  h2.5v-2.5v-2.5v-2.5v-2.5v-2.5h2.5v-2.5h2.5v-2.5h2.5v-2.5v-2.5h-2.5v-2.5h-2.5v-2.5h-2.5v-2.5v-2.5v-2.5v-2.5v-2.5h-2.5v-2.5v-2.5  v-2.5h2.5h2.5h2.5h2.5h2.5h2.5h2.5h2.5h2.5h2.5h2.5h2.5H66.25z M63.75,71.41h-2.5h-2.5h-2.5h-2.5h-2.5h-2.5h-2.5h-2.5h-2.5h-2.5  h-2.5v2.5h2.5h2.5h2.5h2.5h2.5h2.5h2.5h2.5h2.5h2.5h2.5V71.41z M61.25,28.91h-2.5h-2.5h-2.5h-2.5h-2.5h-2.5h-2.5h-2.5h-2.5v2.5v2.5  v2.5v2.5h2.5v2.5h2.5v2.5h2.5v2.5h2.5v2.5v2.5h-2.5v2.5h-2.5v2.5h-2.5v2.5h-2.5v2.5v2.5v2.5v2.5h2.5v-2.5h2.5v2.5h2.5v-2.5h2.5v2.5  h2.5v-2.5h2.5v2.5h2.5v-2.5h2.5v2.5h2.5v-2.5v-2.5v-2.5v-2.5h-2.5v-2.5h-2.5v-2.5h-2.5v-2.5h-2.5v-2.5v-2.5h2.5v-2.5h2.5v-2.5h2.5  v-2.5h2.5v-2.5v-2.5v-2.5V28.91z M63.75,23.91h-2.5h-2.5h-2.5h-2.5h-2.5h-2.5h-2.5h-2.5h-2.5h-2.5h-2.5v2.5h2.5h2.5h2.5h2.5h2.5h2.5  h2.5h2.5h2.5h2.5h2.5V23.91z M53.75,63.91v2.5h2.5v-2.5H53.75z M48.75,63.91v2.5h2.5v-2.5H48.75z M53.75,63.91v-2.5h-2.5v2.5H53.75z   M51.25,58.91h-2.5v2.5h2.5V58.91z M48.75,56.41h2.5v-2.5h-2.5V56.41z M48.75,43.91v2.5h2.5v-2.5H48.75z M48.75,41.41h2.5v-2.5h-2.5  V41.41z M51.25,33.91h-2.5v2.5h2.5V33.91z M53.75,36.41h2.5v-2.5h-2.5V36.41z M51.25,38.91h2.5v-2.5h-2.5V38.91z"></path></svg>