<svg xmlns:dc="http://purl.org/dc/elements/1.1/" xmlns:cc="http://creativecommons.org/ns#" xmlns:rdf="http://www.w3.org/1999/02/22-rdf-syntax-ns#" xmlns:svg="http://www.w3.org/2000/svg" xmlns="http://www.w3.org/2000/svg" xmlns:sodipodi="http://sodipodi.sourceforge.net/DTD/sodipodi-0.dtd" xmlns:inkscape="http://www.inkscape.org/namespaces/inkscape" viewBox="0 0 881.25006 1032.5001" version="1.1" x="0px" y="0px"><g transform="translate(982.60335,657.24562)"><path style="" d="m -982.60335,75.254479 0,-300.000069 51.875,0 51.875,0 0,-216.25001 0,-216.25002 336.2501,0 336.25,0 0,216.25002 0,216.25001 52.5,0 52.5,0 0,300.000069 0,300.000001 -440.625,0 -440.6251,0 0,-300.000001 z m 758.7501,3.75 0,-192.500059 -323.75,0 -323.7501,0 0,192.500059 0,192.500001 323.7501,0 323.75,0 0,-192.500001 z m -335.6755,120.690401 c -45.2177,-7.0285 -82.142,-38.8215 -95.9493,-82.6151 -13.3164,-42.236901 -1.8873,-88.494501 29.6592,-120.0409606 46.828,-46.8280904 122.1031,-46.8280904 168.9312,0 46.8281,46.8280596 46.8281,122.1031606 0,168.9312606 -18.6312,18.6312 -40.5863,29.6825 -66.9656,33.7076 -14.0007,2.1364 -22.017,2.1402 -35.6755,0.017 z m 238.1755,-583.19048 0,-158.75001 -221.25,0 -221.25,0 0,158.75001 0,158.75001 221.25,0 221.25,0 0,-158.75001 z"></path></g></svg>