<svg xmlns:dc="http://purl.org/dc/elements/1.1/" xmlns:cc="http://creativecommons.org/ns#" xmlns:rdf="http://www.w3.org/1999/02/22-rdf-syntax-ns#" xmlns:svg="http://www.w3.org/2000/svg" xmlns="http://www.w3.org/2000/svg" xmlns:sodipodi="http://sodipodi.sourceforge.net/DTD/sodipodi-0.dtd" xmlns:inkscape="http://www.inkscape.org/namespaces/inkscape" viewBox="0 0 881.25001 1032.5" version="1.1" x="0px" y="0px"><g transform="translate(930.8989,795.57436)"><path style="" d="m -930.8989,-63.074369 0,-299.999991 51.875,0 51.875,0 0,-216.25 0,-216.25 336.25,0 336.25,0 0,108.125 0,108.125 -57.5,0 -57.5,0 0,-50.625 0,-50.625 -221.25,0 -221.25,0 0,158.75 0,158.75 331.25,0 331.250005,0 0,299.999991 0,299.999999 -440.625005,0 -440.625,0 0,-299.999999 z m 753.75,0.625 0,-176.874991 -317.5,0 -317.5,0 0,176.874991 0,176.874999 317.5,0 317.5,0 0,-176.874999 z m -330.6755,123.8154 c -45.21764,-7.0285 -82.14199,-38.8214 -95.94922,-82.6151 -13.31643,-42.2368 -1.88732,-88.494501 29.65911,-120.040901 46.82809,-46.82809 122.10314,-46.82809 168.93122,0 46.82809,46.828101 46.82809,122.103101 0,168.931201 -18.63118,18.6312 -40.58633,29.6825 -66.96561,33.7077 -14.00065,2.1363 -22.01701,2.1402 -35.6755,0.017 z"></path></g></svg>