<svg xmlns="http://www.w3.org/2000/svg" xmlns:xlink="http://www.w3.org/1999/xlink" xmlns:sketch="http://www.bohemiancoding.com/sketch/ns" viewBox="0 0 91 91" version="1.1" x="0px" y="0px"><title>rect16236</title><desc>Created with Sketch.</desc><g stroke="none" stroke-width="1" fill="none" fill-rule="evenodd" sketch:type="MSPage"><path d="M22.793,0.45508 L22.793,7.95508 L30.293,7.95508 L37.793,7.95508 L45.293,7.95508 L52.793,7.95508 L60.293,7.95508 L67.793,7.95508 L67.793,0.45508 L60.293,0.45508 L52.793,0.45508 L45.293,0.45508 L37.793,0.45508 L30.293,0.45508 L22.793,0.45508 L22.793,0.45508 Z M67.793,7.95508 L67.793,15.45508 L75.293,15.45508 L75.293,7.95508 L67.793,7.95508 L67.793,7.95508 Z M75.293,15.45508 L75.293,22.95508 L82.793,22.95508 L82.793,15.45508 L75.293,15.45508 L75.293,15.45508 Z M82.793,22.95508 L82.793,30.45508 L82.793,37.95508 L82.793,45.45508 L82.793,52.95508 L82.793,60.45508 L82.793,67.95508 L90.293,67.95508 L90.293,60.45508 L90.293,52.95508 L90.293,45.45508 L90.293,37.95508 L90.293,30.45508 L90.293,22.95508 L82.793,22.95508 L82.793,22.95508 Z M82.793,67.95508 L75.293,67.95508 L75.293,75.45508 L82.793,75.45508 L82.793,67.95508 L82.793,67.95508 Z M75.293,75.45508 L67.793,75.45508 L67.793,82.95508 L75.293,82.95508 L75.293,75.45508 L75.293,75.45508 Z M67.793,82.95508 L60.293,82.95508 L52.793,82.95508 L45.293,82.95508 L37.793,82.95508 L30.293,82.95508 L22.793,82.95508 L22.793,90.45508 L30.293,90.45508 L37.793,90.45508 L45.293,90.45508 L52.793,90.45508 L60.293,90.45508 L67.793,90.45508 L67.793,82.95508 L67.793,82.95508 Z M22.793,82.95508 L22.793,75.45508 L15.293,75.45508 L15.293,82.95508 L22.793,82.95508 L22.793,82.95508 Z M15.293,75.45508 L15.293,67.95508 L7.793,67.95508 L7.793,75.45508 L15.293,75.45508 L15.293,75.45508 Z M7.793,67.95508 L7.793,60.45508 L7.793,52.95508 L7.793,45.45508 L7.793,37.95508 L7.793,30.45508 L7.793,22.95508 L0.293,22.95508 L0.293,30.45508 L0.293,37.95508 L0.293,45.45508 L0.293,52.95508 L0.293,60.45508 L0.293,67.95508 L7.793,67.95508 L7.793,67.95508 Z M7.793,22.95508 L15.293,22.95508 L15.293,15.45508 L7.793,15.45508 L7.793,22.95508 L7.793,22.95508 Z M15.293,15.45508 L22.793,15.45508 L22.793,7.95508 L15.293,7.95508 L15.293,15.45508 L15.293,15.45508 Z M37.793,15.45508 L37.793,22.95508 L45.293,22.95508 L52.793,22.95508 L52.793,15.45508 L45.293,15.45508 L37.793,15.45508 L37.793,15.45508 Z M52.793,22.95508 L52.793,30.45508 L52.793,37.95508 L45.293,37.95508 L37.793,37.95508 L30.293,37.95508 L22.793,37.95508 L22.793,45.45508 L22.793,52.95508 L22.793,60.45508 L22.793,67.95508 L30.293,67.95508 L37.793,67.95508 L45.293,67.95508 L52.793,67.95508 L60.293,67.95508 L67.793,67.95508 L67.793,60.45508 L67.793,52.95508 L67.793,45.45508 L67.793,37.95508 L60.293,37.95508 L60.293,30.45508 L60.293,22.95508 L52.793,22.95508 L52.793,22.95508 Z M37.793,22.95508 L30.293,22.95508 L30.293,30.45508 L37.793,30.45508 L37.793,22.95508 L37.793,22.95508 Z" sketch:type="MSShapeGroup"></path></g></svg>